<mxfile host="app.diagrams.net" modified="2022-01-09T16:27:25.678Z" agent="5.0 (Windows NT 10.0; Win64; x64) AppleWebKit/537.36 (KHTML, like Gecko) Chrome/97.0.4692.71 Safari/537.36 Edg/97.0.1072.55" etag="uswmXX3WBmpTJxMowM_Z" version="16.1.2" type="github">
  <diagram id="gl7CjNAeVXqX2imVE2fy" name="第 1 页">
    <mxGraphModel dx="1102" dy="582" grid="1" gridSize="10" guides="1" tooltips="1" connect="1" arrows="1" fold="1" page="1" pageScale="1" pageWidth="827" pageHeight="1169" math="0" shadow="0">
      <root>
        <mxCell id="0" />
        <mxCell id="1" parent="0" />
        <mxCell id="l3q_xSDT1Z9aJ3QbagT--3" value="" style="edgeStyle=orthogonalEdgeStyle;rounded=0;orthogonalLoop=1;jettySize=auto;html=1;" edge="1" parent="1" source="l3q_xSDT1Z9aJ3QbagT--1" target="l3q_xSDT1Z9aJ3QbagT--2">
          <mxGeometry relative="1" as="geometry" />
        </mxCell>
        <mxCell id="l3q_xSDT1Z9aJ3QbagT--4" style="edgeStyle=orthogonalEdgeStyle;rounded=0;orthogonalLoop=1;jettySize=auto;html=1;exitX=0.5;exitY=1;exitDx=0;exitDy=0;entryX=0.5;entryY=0;entryDx=0;entryDy=0;" edge="1" parent="1" source="l3q_xSDT1Z9aJ3QbagT--1" target="l3q_xSDT1Z9aJ3QbagT--5">
          <mxGeometry relative="1" as="geometry">
            <mxPoint x="260" y="180" as="targetPoint" />
          </mxGeometry>
        </mxCell>
        <mxCell id="l3q_xSDT1Z9aJ3QbagT--7" style="edgeStyle=orthogonalEdgeStyle;rounded=0;orthogonalLoop=1;jettySize=auto;html=1;exitX=0.5;exitY=1;exitDx=0;exitDy=0;entryX=0.5;entryY=0;entryDx=0;entryDy=0;" edge="1" parent="1" source="l3q_xSDT1Z9aJ3QbagT--1" target="l3q_xSDT1Z9aJ3QbagT--6">
          <mxGeometry relative="1" as="geometry" />
        </mxCell>
        <mxCell id="l3q_xSDT1Z9aJ3QbagT--1" value="抄表系统" style="ellipse;whiteSpace=wrap;html=1;aspect=fixed;" vertex="1" parent="1">
          <mxGeometry x="380" y="50" width="80" height="80" as="geometry" />
        </mxCell>
        <mxCell id="l3q_xSDT1Z9aJ3QbagT--2" value="营收系统" style="rounded=0;whiteSpace=wrap;html=1;" vertex="1" parent="1">
          <mxGeometry x="360" y="190" width="120" height="60" as="geometry" />
        </mxCell>
        <mxCell id="l3q_xSDT1Z9aJ3QbagT--5" value="Gist系统" style="rounded=0;whiteSpace=wrap;html=1;" vertex="1" parent="1">
          <mxGeometry x="200" y="190" width="120" height="60" as="geometry" />
        </mxCell>
        <mxCell id="l3q_xSDT1Z9aJ3QbagT--6" value="调度系统" style="rounded=0;whiteSpace=wrap;html=1;" vertex="1" parent="1">
          <mxGeometry x="520" y="190" width="120" height="60" as="geometry" />
        </mxCell>
      </root>
    </mxGraphModel>
  </diagram>
</mxfile>
